<svg xmlns="http://www.w3.org/2000/svg" xmlns:xlink="http://www.w3.org/1999/xlink" width="720" height="148" viewBox="0 0 720 148"><defs><style>.a{fill:#fff;stroke:#707070;}.b{clip-path:url(#a);}.c{fill:#004a98;}.d{fill:#773dbd;}.e{fill:#0083ad;}.f{clip-path:url(#b);}.g{fill:#7a97ab;}.h{fill:#beccd5;}</style><clipPath id="a"><rect class="a" width="340" height="134" transform="translate(916 644)"/></clipPath><clipPath id="b"><rect class="a" width="431" height="148" transform="translate(947.5 644)"/></clipPath></defs><g transform="translate(-1001 -110)"><g class="b" transform="translate(85 -534)"><g transform="translate(856.122 746.508) rotate(-90)"><path class="c" d="M2.234,0A34.678,34.678,0,0,0,0,12.146V94.287a34.68,34.68,0,0,0,2.234,12.147L55.451,53.217Z" transform="translate(0 172.964)"/><path class="d" d="M7.934,160.562A34.672,34.672,0,0,0,0,172.964l53.217,53.217,170.73-170.73L168.5,0Z" transform="translate(2.234)"/><path class="e" d="M108.627,166.313C105.082,162.766,1.723,57.825,0,53.217L53.217,0,224.24,171.023l-55.451,55.451Z" transform="translate(2.234 226.181)"/></g></g><g class="f" transform="translate(342.5 -534)"><g transform="translate(856.165 782.497) rotate(-90)"><path class="g" d="M3.019,0A46.853,46.853,0,0,0,0,16.41V127.39A46.855,46.855,0,0,0,3.019,143.8l71.9-71.9Z" transform="translate(0 233.69)"/><path class="h" d="M10.72,216.933A46.845,46.845,0,0,0,0,233.69l71.9,71.9L302.572,74.919,227.653,0Z" transform="translate(3.019)"/><path class="c" d="M146.765,224.7C141.975,219.911,2.328,78.127,0,71.9L71.9,0,302.968,231.067l-74.919,74.919Z" transform="translate(3.019 305.591)"/></g></g></g></svg>