<svg xmlns="http://www.w3.org/2000/svg" width="300" height="64.613" viewBox="0 0 300 64.613"><defs><style>.a{fill:#0083ad;}.b{fill:#004a98;}.c{fill:#63cfe3;}.d{fill:#773dbd;}.e{fill:#00bbb4;}.f{fill:#7a97ab;}.g{fill:#008aab;}.h{fill:#ff9e18;}</style></defs><g transform="translate(0 3.248)"><g transform="translate(0 -3.248)"><path class="a" d="M.55,58.161A6.638,6.638,0,0,0,2.087,60.52L12.881,71.276a6.638,6.638,0,0,0,2.359,1.537l10.088-10.1L10.669,48.05Z" transform="translate(-0.127 -8.637)"/><path class="b" d="M.423,34.88A6.738,6.738,0,0,0,0,37.185V52.8a6.692,6.692,0,0,0,.423,2.3L10.541,45Z" transform="translate(0 -5.586)"/><path class="c" d="M21.945,77.671H37.588a6.738,6.738,0,0,0,2.3-.423L29.751,67.13,19.64,77.249A6.661,6.661,0,0,0,21.945,77.671Z" transform="translate(-4.55 -13.058)"/><path class="d" d="M2.057,28.454A6.546,6.546,0,0,0,.52,30.8L10.662,40.923l3.288-3.3a14.244,14.244,0,0,0,0-20.145h0a.661.661,0,0,0-.93,0Z" transform="translate(-0.12 -1.511)"/><path class="e" d="M32.8,62.709,42.942,72.828a6.546,6.546,0,0,0,2.351-1.537L56.1,60.535a6.723,6.723,0,0,0,1.537-2.359L47.467,48.05Z" transform="translate(-7.6 -8.637)"/><path class="f" d="M58.243,28.454,47.271,17.482a.661.661,0,0,0-.93,0h0a14.244,14.244,0,0,0,0,20.145l3.3,3.3L59.749,30.8A6.623,6.623,0,0,0,58.243,28.454Z" transform="translate(-9.77 -1.511)"/><path class="g" d="M62,34.88,51.89,45,62,55.109a6.515,6.515,0,0,0,.423-2.3V37.193A6.561,6.561,0,0,0,62,34.88Z" transform="translate(-12.023 -5.586)"/><circle class="h" cx="6.454" cy="6.454" r="6.454" transform="matrix(0.833, -0.554, 0.554, 0.833, 16.246, 7.15)"/><path class="b" d="M85.878,38.281c0-9.435,5.516-14.721,14.6-14.721a36.579,36.579,0,0,1,9.6,1.252,1.729,1.729,0,0,1,1.306,2.3l-.392,1.875a1.759,1.759,0,0,1-2.389,1.252,30.77,30.77,0,0,0-7.322-.968c-5.793,0-8.451,3.073-8.451,9.611V49.429c0,6.484,2.62,9.55,8.451,9.55a29.2,29.2,0,0,0,7.506-.968,1.613,1.613,0,0,1,2.167,1.314l.392,1.928a1.852,1.852,0,0,1-1.306,2.3,38.638,38.638,0,0,1-9.6,1.2c-9.043,0-14.6-5.178-14.6-14.675Z" transform="translate(-19.889 -2.963)"/><path class="b" d="M125.548,24.713a2.151,2.151,0,0,1,2.3-2.3H129.9a2.151,2.151,0,0,1,2.3,2.3V56.982c0,1.2.284,1.652.622,1.936a1.844,1.844,0,0,1,.768,2.159l-.453,1.59c-.223.968-.768,1.767-2.5,1.483-2.451-.515-5.009-1.821-5.009-6.484Z" transform="translate(-29.088 -2.695)"/><path class="b" d="M142.42,25.952a3.842,3.842,0,1,1,3.842,3.842A3.842,3.842,0,0,1,142.42,25.952Zm.515,10.518a2.144,2.144,0,0,1,2.3-2.3h2.105a2.105,2.105,0,0,1,2.22,2.3v24.9a2.105,2.105,0,0,1-2.22,2.3H145.24a2.144,2.144,0,0,1-2.3-2.3Z" transform="translate(-32.998 -2.627)"/><path class="b" d="M159,39.882a2.144,2.144,0,0,1,2.3-2.3h1.083c1.36,0,2.3.515,2.443,1.821l.115.907a12.439,12.439,0,0,1,8.182-3.465c6.2,0,9.558,3.749,9.558,9.988V64.783a2.151,2.151,0,0,1-2.3,2.3h-2.051a2.151,2.151,0,0,1-2.3-2.3V47.788c0-3.642-1.137-5.294-4.264-5.294-2.3,0-4.149,1.083-6.2,2.9V64.783a2.105,2.105,0,0,1-2.213,2.3H161.3a2.144,2.144,0,0,1-2.3-2.3Z" transform="translate(-36.838 -6.04)"/><path class="b" d="M197.33,38.281c0-9.435,5.516-14.721,14.559-14.721a36.579,36.579,0,0,1,9.6,1.252,1.729,1.729,0,0,1,1.314,2.3l-.376,1.844a1.759,1.759,0,0,1-2.389,1.252,30.732,30.732,0,0,0-7.3-.937c-5.8,0-8.451,3.073-8.451,9.611V49.429c0,6.484,2.62,9.55,8.451,9.55a29.249,29.249,0,0,0,7.506-.968,1.606,1.606,0,0,1,2.182,1.314l.4,1.928a1.859,1.859,0,0,1-1.314,2.3,38.638,38.638,0,0,1-9.6,1.2c-9.043,0-14.559-5.178-14.559-14.675Z" transform="translate(-45.72 -2.963)"/><path class="b" d="M236.9,24.713a2.151,2.151,0,0,1,2.3-2.3h2.105a2.105,2.105,0,0,1,2.22,2.3V36.422a12.216,12.216,0,0,1,7.506-2.9c6.193,0,9.55,3.749,9.55,9.988V61.438a2.151,2.151,0,0,1-2.3,2.3H256.23a2.151,2.151,0,0,1-2.3-2.3V44.443c0-3.7-1.137-5.294-4.264-5.294-2.213,0-4.149,1.083-6.193,2.9V61.438a2.105,2.105,0,0,1-2.22,2.3h-2.105a2.151,2.151,0,0,1-2.3-2.3Z" transform="translate(-54.873 -2.695)"/><path class="b" d="M273.33,50.072c0-7.906,4.61-13.192,12.623-13.192s12.623,5.286,12.623,13.192v4.487c0,8.136-4.664,13.253-12.623,13.253S273.33,62.7,273.33,54.559ZM285.953,62.18c4.548,0,5.97-2.958,5.97-8.075V50.579c0-5-1.421-8.075-5.97-8.075s-5.916,3.073-5.916,8.075v3.527C280.037,59.253,281.4,62.18,285.953,62.18Z" transform="translate(-63.329 -6.049)"/><path class="b" d="M311.51,25.952a3.842,3.842,0,1,1,3.842,3.842A3.842,3.842,0,0,1,311.51,25.952Zm.515,10.518a2.144,2.144,0,0,1,2.3-2.3h2.105a2.105,2.105,0,0,1,2.213,2.3v24.9a2.105,2.105,0,0,1-2.213,2.3H314.33a2.144,2.144,0,0,1-2.3-2.3Z" transform="translate(-72.175 -2.627)"/><path class="b" d="M326.83,50.241c0-7.683,4.149-13.361,12.677-13.361a27.283,27.283,0,0,1,7.168.968,2.093,2.093,0,0,1,1.706,2.727l-.346,1.252a2.2,2.2,0,0,1-2.95,1.306,21.735,21.735,0,0,0-5.232-.63c-4.833,0-6.315,3.473-6.315,8.252v3.073c0,4.894,1.483,8.359,6.315,8.359a19.33,19.33,0,0,0,5.455-.768c1.368-.4,2.389.054,2.727,1.36l.346,1.137a2.113,2.113,0,0,1-1.706,2.843,25.185,25.185,0,0,1-7.168,1.03c-8.528,0-12.677-5.747-12.677-13.422Z" transform="translate(-75.725 -6.049)"/><path class="b" d="M358.87,49.1c0-6.369,4.379-12.224,12.108-12.224A11.97,11.97,0,0,1,383.148,49.1v3.842a1.368,1.368,0,0,1-1.306,1.36H365.47v1.314c0,2.781.96,6.592,6.308,6.592a28.427,28.427,0,0,0,6.308-.853c1.421-.338,2.451,0,2.85,1.421l.223,1.083a2.067,2.067,0,0,1-1.59,2.727,27.206,27.206,0,0,1-7.791,1.252c-8.982,0-12.907-6.031-12.907-12.224Zm17.671.515V48.65c0-3.012-1.368-6.146-5.516-6.146s-5.57,3.188-5.57,6.146v.968Z" transform="translate(-83.148 -6.049)"/></g></g></svg>